Coordinates
version=1
nRows=29
nColumns=38
inDegrees=no

Units are S.I. units (second, meters, Newtons, ...)
If the header above contains a line with 'inDegrees', this indicates whether rotational values are in degrees (yes) or radians (no).

endheader
time	pelvis_tilt	pelvis_list	pelvis_rotation	pelvis_tx	pelvis_ty	pelvis_tz	hip_flexion_r	hip_adduction_r	hip_rotation_r	knee_angle_r	ankle_angle_r	subtalar_angle_r	mtp_angle_r	hip_flexion_l	hip_adduction_l	hip_rotation_l	knee_angle_l	ankle_angle_l	subtalar_angle_l	mtp_angle_l	lumbar_extension	lumbar_bending	lumbar_rotation	arm_flex_r	arm_add_r	arm_rot_r	elbow_flex_r	pro_sup_r	wrist_flex_r	wrist_dev_r	arm_flex_l	arm_add_l	arm_rot_l	elbow_flex_l	pro_sup_l	wrist_flex_l	wrist_dev_l
2.705	-0.0879638	0.00407173	0.0421429	1.11131	1.01162	-0.480567	0.259408	0.00660177	0.0303887	0.357681	0.168687	0.0471365	-0.0117021	0.393737	-0.0169921	0.0559748	1.19302	-0.122116	-0.0038678	-0.00922108	-0.121028	0.0149248	-0.101464	-0.17175	-0.18942	-0.130029	0.675581	1.17779	-0.00328011	0.000992806	0.0234561	-0.189508	-0.0621816	0.668657	1.22811	-2.7407e-05	0.000466441
2.71	-0.0869202	0.00686479	0.0409482	1.11686	1.01248	-0.48036	0.250147	0.00412885	0.0310499	0.353267	0.169759	0.0484704	-0.0117021	0.407577	-0.0124162	0.0527122	1.19181	-0.1118	-0.00548628	-0.00922108	-0.123646	0.0111922	-0.0977178	-0.167482	-0.190764	-0.129306	0.682713	1.17553	-0.00328011	0.000992806	0.0215464	-0.189159	-0.0622082	0.660762	1.23018	-2.7407e-05	0.000466441
2.715	-0.0858659	0.00959438	0.039822	1.12239	1.01331	-0.480174	0.240809	0.00169129	0.0316931	0.348691	0.170736	0.0496834	-0.0117021	0.421069	-0.00795682	0.0493732	1.18935	-0.101863	-0.00707942	-0.00922108	-0.12627	0.00753935	-0.0940813	-0.163091	-0.192074	-0.128612	0.689792	1.1734	-0.00328011	0.000992806	0.0194907	-0.188818	-0.0625037	0.652984	1.23222	-2.7407e-05	0.000466441
2.72	-0.0848066	0.0122461	0.0387702	1.12791	1.01412	-0.480009	0.231393	-0.000691917	0.0323205	0.343948	0.171641	0.0507749	-0.0117021	0.434207	-0.0036335	0.045991	1.18566	-0.0923463	-0.00863895	-0.00922108	-0.128892	0.00398217	-0.0905582	-0.158585	-0.193353	-0.127935	0.696819	1.17138	-0.00328011	0.000992806	0.0172975	-0.188481	-0.0630685	0.645331	1.23418	-2.7407e-05	0.000466441
2.725	-0.0837494	0.0148059	0.0377953	1.13343	1.0149	-0.479863	0.221899	-0.00300193	0.0329345	0.339031	0.172491	0.0517481	-0.0117021	0.446982	0.000533589	0.042598	1.18077	-0.0832817	-0.0101548	-0.00922108	-0.131503	0.000534717	-0.0871481	-0.153977	-0.194601	-0.127266	0.703798	1.16947	-0.00328011	0.000992806	0.0149779	-0.188148	-0.0639011	0.637808	1.23603	-2.7407e-05	0.000466441
2.73	-0.0827027	0.0172602	0.036897	1.13894	1.01564	-0.479734	0.21233	-0.0052202	0.0335369	0.333936	0.173304	0.0526104	-0.0117021	0.459384	0.00452327	0.0392253	1.17468	-0.0746927	-0.0116156	-0.00922108	-0.134091	-0.00279037	-0.0838468	-0.14928	-0.195821	-0.126599	0.710732	1.16764	-0.00328011	0.000992806	0.012545	-0.187816	-0.0649985	0.630419	1.23775	-2.7407e-05	0.000466441
2.735	-0.0816756	0.0195955	0.0360705	1.14445	1.01634	-0.479621	0.202689	-0.00732829	0.0341309	0.328657	0.17409	0.0533713	-0.0117021	0.471397	0.00831295	0.0359016	1.16741	-0.066595	-0.0130091	-0.00922108	-0.136644	-0.00598173	-0.0806458	-0.14451	-0.197012	-0.125933	0.717624	1.16591	-0.00328011	0.000992806	0.0100138	-0.187486	-0.0663574	0.623169	1.23934	-2.7407e-05	0.000466441
2.74	-0.0806775	0.0217989	0.0353068	1.14996	1.017	-0.479521	0.192984	-0.00930794	0.0347222	0.323191	0.17486	0.0540406	-0.0117021	0.483004	0.0118786	0.0326524	1.15895	-0.0589994	-0.0143227	-0.00922108	-0.139151	-0.00902914	-0.0775323	-0.139685	-0.198175	-0.125269	0.724478	1.16427	-0.00328011	0.000992806	0.00740066	-0.187157	-0.0679732	0.616062	1.24078	-2.7407e-05	0.000466441
2.745	-0.0797186	0.0238581	0.0345929	1.15547	1.01761	-0.479432	0.183221	-0.0111415	0.0353186	0.317536	0.175619	0.0546285	-0.0117021	0.494181	0.015195	0.0294998	1.14928	-0.0519128	-0.0155435	-0.00922108	-0.141597	-0.0119233	-0.0744895	-0.134826	-0.19931	-0.12461	0.731298	1.16272	-0.00328011	0.000992806	0.00472257	-0.18683	-0.06984	0.609101	1.24209	-2.7407e-05	0.000466441
2.75	-0.0788113	0.0257611	0.0339126	1.16098	1.01817	-0.47935	0.173413	-0.0128123	0.035928	0.311691	0.17637	0.055148	-0.0117021	0.504906	0.0182366	0.026463	1.13839	-0.0453402	-0.0166594	-0.00922108	-0.143967	-0.0146554	-0.0714983	-0.129954	-0.20042	-0.123961	0.738091	1.16125	-0.00328011	0.000992806	0.00199576	-0.186505	-0.0719505	0.602291	1.24327	-2.7407e-05	0.000466441
2.755	-0.0779697	0.0274972	0.0332472	1.1665	1.01867	-0.479273	0.163575	-0.0143053	0.0365602	0.305658	0.177115	0.0556125	-0.0117021	0.515154	0.0209776	0.0235579	1.12625	-0.0392864	-0.017659	-0.00922108	-0.146241	-0.0172175	-0.068537	-0.125093	-0.201506	-0.123328	0.744862	1.15986	-0.00328011	0.000992806	-0.000764891	-0.186184	-0.0742967	0.595639	1.24432	-2.7407e-05	0.000466441
2.76	-0.0772091	0.0290564	0.0325759	1.17202	1.01912	-0.479198	0.153723	-0.0156068	0.0372261	0.29944	0.177855	0.0560354	-0.0117021	0.524897	0.023393	0.0207977	1.11284	-0.0337567	-0.0185319	-0.00922108	-0.148398	-0.0196022	-0.0655828	-0.120267	-0.202569	-0.122719	0.751617	1.15856	-0.00328011	0.000992806	-0.00354671	-0.185868	-0.0768706	0.589153	1.24528	-2.7407e-05	0.000466441
2.765	-0.0765473	0.0304298	0.0318772	1.17755	1.01951	-0.479124	0.143879	-0.016705	0.0379373	0.293042	0.178588	0.0564307	-0.0117021	0.534113	0.0254595	0.0181934	1.09813	-0.0287581	-0.0192698	-0.00922108	-0.150413	-0.0218022	-0.0626126	-0.115502	-0.203615	-0.122141	0.758362	1.15734	-0.00328011	0.000992806	-0.00634018	-0.185559	-0.0796648	0.582844	1.24615	-2.7407e-05	0.000466441
2.77	-0.076002	0.0316099	0.031129	1.18309	1.01983	-0.479047	0.134067	-0.0175904	0.0387073	0.286471	0.179313	0.0568096	-0.0117021	0.542775	0.0271562	0.0157536	1.08207	-0.0242999	-0.0198659	-0.00922108	-0.15226	-0.0238114	-0.0596034	-0.110823	-0.204648	-0.121599	0.765105	1.15622	-0.00328011	0.000992806	-0.00913911	-0.185259	-0.0826742	0.576723	1.24697	-2.7407e-05	0.000466441
2.775	-0.0755897	0.0325906	0.0303093	1.18864	1.02009	-0.478966	0.124308	-0.0182557	0.039552	0.279736	0.180026	0.0571803	-0.0117021	0.550862	0.0284659	0.0134849	1.06465	-0.020393	-0.0203164	-0.00922108	-0.153916	-0.0256243	-0.0565332	-0.106255	-0.205672	-0.121101	0.771853	1.1552	-0.00328011	0.000992806	-0.0119406	-0.184967	-0.0858976	0.570807	1.24778	-2.7407e-05	0.000466441
2.78	-0.0753247	0.0333679	0.0293978	1.1942	1.02028	-0.47888	0.114621	-0.0186974	0.0404865	0.272846	0.180725	0.0575504	-0.0117021	0.558349	0.0293763	0.0113915	1.04586	-0.01705	-0.0206203	-0.00922108	-0.155357	-0.0272368	-0.0533819	-0.101821	-0.206695	-0.120649	0.778614	1.15429	-0.00328011	0.000992806	-0.0147448	-0.184686	-0.0893366	0.565112	1.24863	-2.7407e-05	0.000466441
2.785	-0.0752185	0.0339402	0.0283758	1.19979	1.0204	-0.478787	0.105024	-0.0189152	0.0415267	0.265812	0.181406	0.0579242	-0.0117021	0.565215	0.0298816	0.00947565	1.02567	-0.0142836	-0.0207803	-0.00922108	-0.156565	-0.0286464	-0.0501325	-0.0975412	-0.207725	-0.120245	0.785396	1.1535	-0.00328011	0.000992806	-0.0175547	-0.184414	-0.0929916	0.559656	1.24957	-2.7407e-05	0.000466441
2.79	-0.0752794	0.0343085	0.0272281	1.20539	1.02044	-0.478687	0.0955312	-0.0189128	0.0426863	0.258649	0.182067	0.0583042	-0.0117021	0.571446	0.0299834	0.0077376	1.0041	-0.0121052	-0.0208022	-0.00922108	-0.157524	-0.0298525	-0.0467722	-0.0934349	-0.208768	-0.119884	0.79221	1.15279	-0.00328011	0.000992806	-0.020375	-0.184154	-0.0968556	0.554456	1.25062	-2.7407e-05	0.000466441
2.795	-0.0755124	0.0344774	0.0259449	1.21102	1.02041	-0.478582	0.0861518	-0.0186992	0.0439738	0.251371	0.182709	0.0586936	-0.0117021	0.577029	0.0296924	0.00617577	0.981162	-0.010523	-0.0206956	-0.00922108	-0.158226	-0.030857	-0.0432943	-0.0895165	-0.209834	-0.119561	0.799063	1.15216	-0.00328011	0.000992806	-0.0232119	-0.183905	-0.100916	0.549531	1.25177	-2.7407e-05	0.000466441
2.8	-0.0759188	0.034455	0.0245228	1.21666	1.02031	-0.478471	0.0768933	-0.0182881	0.0453936	0.243994	0.183333	0.0590932	-0.0117021	0.58196	0.0290291	0.00478695	0.956905	-0.00953939	-0.0204728	-0.00922108	-0.158667	-0.0316645	-0.039699	-0.0857967	-0.210931	-0.119266	0.805965	1.15156	-0.00328011	0.000992806	-0.026072	-0.18367	-0.105157	0.5449	1.25301	-2.7407e-05	0.000466441
2.805	-0.0764966	0.0342533	0.0229661	1.22233	1.02012	-0.478356	0.0677594	-0.0176977	0.0469451	0.23654	0.183944	0.0594997	-0.0117021	0.586246	0.0280239	0.00356652	0.931384	-0.00914891	-0.0201484	-0.00922108	-0.158848	-0.0322825	-0.0359949	-0.0822812	-0.212069	-0.118988	0.812923	1.15097	-0.00328011	0.000992806	-0.0289613	-0.183448	-0.109557	0.540576	1.2543	-2.7407e-05	0.000466441
2.81	-0.07724	0.0338881	0.0212871	1.22802	1.01986	-0.478242	0.0587509	-0.0169506	0.0486219	0.229031	0.184549	0.0599069	-0.0117021	0.589897	0.0267167	0.00250895	0.904677	-0.00933661	-0.0197376	-0.00922108	-0.158778	-0.0327216	-0.0321992	-0.0789708	-0.213254	-0.118716	0.819943	1.15037	-0.00328011	0.000992806	-0.0318848	-0.183242	-0.114096	0.536575	1.25562	-2.7407e-05	0.000466441
2.815	-0.0781391	0.0333783	0.0195059	1.23374	1.01952	-0.478131	0.0498654	-0.0160731	0.0504099	0.221492	0.185159	0.0603096	-0.0117021	0.592937	0.0251557	0.00160841	0.876879	-0.0100774	-0.0192558	-0.00922108	-0.158473	-0.0329955	-0.0283372	-0.0758617	-0.214492	-0.118438	0.827031	1.14974	-0.00328011	0.000992806	-0.0348458	-0.183051	-0.118754	0.532906	1.25693	-2.7407e-05	0.000466441
2.82	-0.079181	0.0327451	0.0176488	1.23948	1.0191	-0.478026	0.0410983	-0.0150933	0.0522901	0.21395	0.185785	0.0607012	-0.0117021	0.59539	0.0233941	0.000859191	0.848099	-0.0113363	-0.0187167	-0.00922108	-0.157953	-0.0331195	-0.0244408	-0.0729451	-0.215788	-0.118146	0.834187	1.14907	-0.00328011	0.000992806	-0.0378453	-0.182875	-0.12351	0.529576	1.25821	-2.7407e-05	0.000466441
2.825	-0.0803503	0.0320097	0.015746	1.24524	1.01861	-0.477933	0.0324442	-0.0140387	0.0542397	0.206434	0.186442	0.0610757	-0.0117021	0.597292	0.0214864	0.000256121	0.818453	-0.01307	-0.0181312	-0.00922108	-0.157242	-0.0331095	-0.0205455	-0.0702089	-0.217145	-0.117832	0.841411	1.14835	-0.00328011	0.000992806	-0.0408823	-0.182714	-0.128347	0.52659	1.25943	-2.7407e-05	0.000466441
2.83	-0.0816299	0.0311919	0.0138282	1.25103	1.01804	-0.477855	0.0238977	-0.0129351	0.0562327	0.198977	0.187143	0.0614309	-0.0117021	0.598678	0.0194841	-0.000205261	0.788065	-0.0152298	-0.0175066	-0.00922108	-0.15637	-0.0329809	-0.0166872	-0.0676377	-0.218564	-0.117489	0.848701	1.14759	-0.00328011	0.000992806	-0.0439537	-0.182566	-0.133246	0.523947	1.26059	-2.7407e-05	0.000466441
2.835	-0.0830027	0.0303084	0.0119234	1.25683	1.0174	-0.477796	0.0154549	-0.0118036	0.0582443	0.191609	0.187903	0.0617662	-0.0117021	0.599587	0.0174317	-0.000529269	0.757062	-0.0177641	-0.0168462	-0.00922108	-0.155362	-0.0327472	-0.0128982	-0.0652143	-0.220045	-0.117113	0.85605	1.1468	-0.00328011	0.000992806	-0.0470548	-0.182429	-0.138191	0.521643	1.26166	-2.7407e-05	0.000466441
2.84	-0.0844529	0.0293712	0.0100534	1.26266	1.0167	-0.477758	0.00711488	-0.0106595	0.0602538	0.184365	0.18873	0.0620825	-0.0117021	0.600061	0.0153629	-0.000721052	0.725569	-0.0206219	-0.0161497	-0.00922108	-0.154247	-0.0324186	-0.00920382	-0.0629207	-0.221588	-0.116702	0.863451	1.14596	-0.00328011	0.000992806	-0.0501799	-0.182301	-0.143168	0.519672	1.26264	-2.7407e-05	0.000466441
2.845	-0.0859661	0.0283878	0.00823171	1.2685	1.01592	-0.477742	-0.00111988	-0.00951213	0.0622438	0.177278	0.189634	0.0623851	-0.0117021	0.600139	0.0132993	-0.000787714	0.693714	-0.0237545	-0.0154139	-0.00922108	-0.153048	-0.0320023	-0.0056198	-0.060739	-0.223192	-0.116256	0.870893	1.1451	-0.00328011	0.000992806	-0.0533225	-0.182176	-0.148168	0.518024	1.26355	-2.7407e-05	0.000466441
